<?xml version="1.0" standalone="no"?><!DOCTYPE svg PUBLIC "-//W3C//DTD SVG 1.1//EN" "http://www.w3.org/Graphics/SVG/1.1/DTD/svg11.dtd"><svg t="1770618823982" class="icon" viewBox="0 0 1536 1024" version="1.1" xmlns="http://www.w3.org/2000/svg" p-id="2939" xmlns:xlink="http://www.w3.org/1999/xlink" width="300" height="200"><path d="M0 768h1536V1024H0v-256zM0 0h1536v256H0V0z" fill="#C60B1E" p-id="2940"></path><path d="M0.146286 256h1536v512h-1536z" fill="#FFC400" p-id="2941"></path><path d="M482.011429 592.749714c-1.609143-10.459429 0.365714-20.845714 1.170285-31.158857 0-0.731429 0.219429-1.462857 0.512-2.194286 2.121143-3.949714 5.412571-6.948571 8.045715-10.605714 7.168-5.12 14.628571-9.581714 24.064-9.216 1.609143 0.146286 2.998857-0.877714 4.608-1.389714a35.84 35.84 0 0 1 27.794285 29.842286c0.731429 2.925714 0.950857 6.144 4.461715 7.460571 16.091429 1.389714 32.182857 0.512 48.347428 0.512 17.993143 0 14.994286 1.389714 15.140572 14.848 0.073143 13.092571-0.658286 26.185143 0.073142 39.277714 1.024 17.846857-1.974857 34.377143-12.8 49.005715-0.292571 0.365714-0.731429 0.438857-1.243428 0.438857-7.314286 4.388571-14.409143 9.216-22.674286 11.629714l0.073143-0.146286c-6.582857 3.437714-13.824 1.462857-20.772571 1.901715-2.706286 0.146286-5.632 0-8.411429 0-9.216 0.658286-15.140571-5.412571-21.650286-10.24a12.288 12.288 0 0 1-2.267428-2.121143c-2.267429-3.291429-5.046857-6.144-7.460572-9.289143-2.706286-4.388571-19.968 11.337143-22.674285 6.948571-1.974857-9.362286-1.097143-24.576-1.828572-33.938285-0.292571-2.706286-1.024-36.571429-1.462857-39.350858l-10.971429-12.214857z" fill="#AA1518" p-id="2942"></path><path d="M549.668571 576.877714c-3.072-1.462857-2.267429-4.169143-2.779428-6.582857-2.779429-12.434286-7.168-23.771429-21.284572-27.428571-2.194286-0.512-2.486857-4.388571-5.558857-2.56-4.681143-0.073143-7.387429-2.121143-7.387428-7.168 0-20.48-0.292571-41.033143 0.073143-61.586286 0-1.097143 0.365714-2.194286 0.731428-3.364571 2.340571-4.022857 6.070857-4.681143 10.24-4.827429 28.306286-0.731429 56.685714 1.170286 84.992 0.731429 6.217143-0.219429 7.094857 3.364571 7.314286 8.484571 0.877714 18.797714 0.365714 37.376 0.731428 56.173714 2.706286 8.777143 1.901714 17.554286-0.731428 26.038857 1.755429 6.290286-0.658286 12.434286-0.146286 18.797715 0.292571 2.925714-1.755429 3.876571-4.534857 3.876571-20.626286-0.512-41.179429 0.365714-61.659429-0.585143z" fill="#DADADA" p-id="2943"></path><path d="M577.389714 448.292571c-2.413714 2.194286 3.364571 6.582857 4.022857 8.777143 2.340571 8.192-10.752 4.388571-14.774857 6.070857-1.243429 0.512 24.576-1.024 23.332572 0.219429 13.165714 0 3.218286-0.731429 16.457143-0.731429 10.825143 0 10.825143 0 10.971428 11.190858l0.365714 54.857142c-0.512 0.438857-1.097143 0.438857-1.609142 0-0.365714-18.724571-1.024-37.449143-1.024-56.246857 0-5.632-2.048-7.314286-7.314286-7.314285-28.306286 0.146286-144.164571 0.146286-162.523429 0-13.750857-5.339429 1.755429-20.626286-1.828571-16.822858h133.851428" fill="#9F8504" p-id="2944"></path><path d="M505.344 353.718857a14.628571 14.628571 0 0 1 4.608-0.365714c4.681143-0.365714 8.777143 1.755429 13.165714 2.633143a72.411429 72.411429 0 0 1 16.237715-3.803429c11.044571-1.389714 18.724571 5.705143 27.574857 10.093714 0.950857 0.512 0.950857 2.486857 3.145143 1.901715a45.860571 45.860571 0 0 1 34.230857 4.242285c10.678857 5.558857 16.969143 16.676571 16.091428 26.112 0.146286 12.068571-23.04 43.300571-43.008 53.76H443.392c-10.093714-1.243429-54.272-56.173714-41.837714-74.605714l103.789714-19.968z" fill="#9F8504" p-id="2945"></path><path d="M400.530286 375.003429c10.093714-21.650286 49.005714-11.995429 52.004571-11.702858 4.169143 0.365714 7.972571-5.851429 10.752-9.216 0 0 10.825143-7.314286 17.481143-2.925714 7.533714 3.291429 17.115429 6.070857 24.649143 2.56l-104.886857 21.211429z" fill="#9F8504" p-id="2946"></path><path d="M649.654857 548.644571c-1.682286-0.658286-2.633143-3.145143-4.827428-2.267428-7.021714 2.998857-14.701714 1.901714-22.016 3.291428-3.510857 0.585143-5.266286 2.340571-6.656 5.12a139.995429 139.995429 0 0 1 0-26.185142h1.609142c9.728-0.585143 19.382857-1.097143 28.964572-1.755429 1.024-0.512 2.194286-1.097143 3.291428-1.243429a29.769143 29.769143 0 0 1 9.435429 0.365715c7.314286 2.267429 15.213714-0.658286 22.381714 2.633143 5.12 5.339429 12.653714 6.290286 18.578286 10.313142 4.900571 3.291429 6.875429 6.729143 4.461714 12.214858-0.877714 1.901714-1.316571 4.096-1.828571 6.070857-2.779429 9.801143-8.777143 15.506286-19.382857 15.36l-34.011429-23.917715z" fill="#AB2C16" p-id="2947"></path><path d="M682.715429 590.262857c2.048 0.731429 4.096 1.316571 5.924571 2.194286 17.042286 7.168 14.921143 11.483429 11.117714 26.843428-1.170286 4.754286-7.460571 5.412571-8.704 10.459429-0.146286 0.585143-1.974857-0.512-2.486857-1.536-1.536-2.998857-2.925714-6.144-0.877714-9.289143 3.145143-5.12 0.731429-7.606857-3.803429-9.508571a5.266286 5.266286 0 0 1-2.048 0.512l-12.434285-4.096c-5.558857-2.267429-11.117714-4.827429-16.603429-6.948572-3.803429-0.731429-4.315429-4.900571-7.168-6.582857-1.462857-0.877714-2.925714-1.609143-4.169143-2.633143a19.090286 19.090286 0 0 1-5.339428-25.819428 8.338286 8.338286 0 0 1 6.948571-4.169143 8.484571 8.484571 0 0 0 6.290286-2.633143l33.353143 33.133714z" fill="#AB1618" p-id="2948"></path><path d="M388.461714 587.556571c-4.388571 2.048-23.771429 15.579429-28.233143 17.261715-4.022857 2.194286-8.411429 3.145143-12.434285 5.046857-1.462857 0.731429-3.145143 0.219429-4.754286 0.073143-4.169143 2.194286-3.657143 5.558857-2.413714 9.069714 1.097143 3.291429 1.755429 6.729143-1.609143 8.777143-3.803429 2.340571-11.117714-12.653714-13.385143-14.409143-7.68-6.070857 6.290286-20.772571 14.994286-25.453714 11.337143-8.045714 35.986286-28.233143 38.765714-30.208l9.069714 29.842285z" fill="#AA1718" p-id="2949"></path><path d="M378.660571 556.105143c5.046857 0.950857 13.458286 5.778286 14.189715 11.556571 1.024 7.314286 4.315429 15.213714-5.12 20.260572l-9.069715-31.817143z" fill="#AA1718" p-id="2950"></path><path d="M412.013714 545.28c-31.890286-10.093714-58.075429 27.428571-65.609143 27.282286-10.24-1.462857-28.964571-15.872-27.209142-25.673143 1.024-5.412571 20.918857-14.482286 25.6-16.822857 1.755429-2.486857 61.293714-6.070857 67.072-1.682286v16.822857h0.146285z" fill="#A9221A" p-id="2951"></path><path d="M389.193143 676.571429c-1.243429 1.682286-3.145143 2.048-4.973714 2.194285-14.482286 0.365714-29.110857 0.365714-43.593143 0-1.901714 0-3.803429-0.512-5.046857-2.194285 0.877714-8.704 6.290286-15.579429 8.704-23.771429 0.877714-0.731429 1.974857-1.682286 2.998857-1.462857 10.825143 2.194286 21.577143 0 32.402285 0 1.755429 1.536 2.925714 5.705143 2.925715 5.705143l6.582857 19.529143z" fill="#B8A203" p-id="2952"></path><path d="M423.204571 676.717714c2.194286-2.194286 1.243429-4.900571 1.243429-7.314285V590.848 585.142857c0.438857-2.779429 0.950857-5.851429 4.096-6.802286 3.730286-0.950857 2.194286 3.291429 3.876571 4.534858a4.754286 4.754286 0 0 0 1.974858 0.658285c2.048 1.974857 1.901714 4.754286 1.901714 7.314286 0 28.306286 0.146286 56.758857-0.073143 85.138286 0 3.510857 1.609143 9.654857-6.070857 7.533714l-6.948572-6.802286z" fill="#A21417" p-id="2953"></path><path d="M528.822857 680.594286c6.729143 2.779429 10.605714 10.971429 19.309714 10.093714 4.900571 1.974857 10.24 1.024 15.140572 2.486857 2.194286 0.731429 5.851429 1.462857 1.609143 4.534857-7.899429 0.512-15.140571 4.169143-22.820572 5.558857-23.405714 4.900571-46.665143 3.437714-69.632-2.925714h0.146286c-1.901714-1.462857-4.388571-0.950857-6.436571-1.828571-2.194286-1.024-4.534857-2.267429-3.510858-5.558857 1.170286-1.024 10.459429-0.512 11.995429-0.658286 2.998857-0.219429 13.165714-4.534857 16.091429-5.412572 1.243429-0.365714 19.748571-13.312 24.064-24.502857l14.116571 18.285715z" fill="#CECECA" p-id="2954"></path><path d="M681.837714 609.28l2.048 0.292571c0.146286 15.872-1.755429 31.744 1.097143 47.616a17.554286 17.554286 0 0 0 3.072 6.802286c-0.731429 3.876571-4.022857 3.510857-6.656 3.510857a462.262857 462.262857 0 0 1-32.402286 0c-2.779429-0.146286-7.021714 0.512-6.290285-4.900571 4.681143-3.803429 3.657143-9.728 3.803428-14.262857 0.731429-17.334857 0.365714-34.742857 0.365715-51.931429 0-1.316571-0.877714-2.706286-1.462858-3.949714 3.657143-0.146286 3.949714 4.022857 6.875429 4.827428-0.731429 14.482286-0.365714 28.891429-0.365714 43.373715 0 7.972571 0.585143 8.484571 8.265143 8.630857 3.584 0.073143 7.094857-0.146286 10.459428 0.073143 9.216-0.512 9.216-0.585143 9.362286-9.654857V617.325714c0.219429-2.925714 0-5.632 1.828571-8.045714z" fill="#A89209" p-id="2955"></path><path d="M414.72 578.121143c6.582857-1.243429 8.411429 1.609143 8.265143 8.045714-0.365714 24.283429-0.292571 48.64-0.146286 72.923429 0 5.12-0.219429 10.24-2.633143 14.848-4.681143-2.413714-5.266286-7.168-6.948571-11.483429 0.512-0.731429 1.170286-1.609143 0.877714-2.633143-4.534857-25.161143-0.512-50.614857-1.755428-75.922285 0-2.194286 0.658286-4.169143 2.267428-5.851429z" fill="#B8A000" p-id="2956"></path><path d="M346.770286 465.188571c0.658286-6.217143-6.656-7.460571-7.68-12.653714 3.291429-1.974857 7.606857 0.438857 10.752-2.194286 9.289143 1.097143 8.045714-6.582857 9.654857-11.702857v-0.146285c2.633143-1.536 3.803429 0 4.681143 2.194285 2.779429 7.314286 2.779429 7.314286 8.192 1.828572l6.802285 0.731428c-1.682286 4.022857-2.56 7.68 3.510858 8.704 0.877714 0.146286 1.389714 1.097143 0.877714 2.194286l-4.169143 5.632c-4.534857 7.168 2.779429 5.412571 5.412571 7.314286l0.146286 2.340571c-0.731429 1.389714-1.901714 2.194286-3.437714 1.755429-10.166857-1.974857-20.48-0.585143-30.793143-1.097143-3.072-0.146286-6.070857 0-8.192-2.413714 0.877714-2.267429 3.218286-1.024 4.242286-2.486858z" fill="#6C5603" p-id="2957"></path><path d="M663.844571 582.363429c-13.312-4.754286-13.312-4.754286-13.897142-18.285715 0-2.194286-0.292571-4.608-0.438858-6.875428l0.146286-8.557715c1.609143-2.048 3.145143-3.876571 5.851429-1.462857a22.089143 22.089143 0 0 0 9.508571 2.121143c4.754286-0.292571 7.387429 2.340571 7.899429 7.021714 0.658286 7.168 0.658286 14.482286 0 21.650286-0.585143 5.924571-4.388571 6.144-9.069715 4.388572z" fill="#D9D7D7" p-id="2958"></path><path d="M649.874286 526.994286l-3.291429-0.146286c0.512-9.947429 1.755429-19.894857 1.462857-29.696-0.292571-5.924571 0-12.361143-3.949714-17.627429 0.512-3.657143 3.510857-3.437714 5.851429-3.510857 9.874286-0.438857 19.748571-0.512 29.549714 0 2.633143 0.073143 6.656-0.292571 5.485714 4.754286-2.925714 2.048-0.365714 4.315429-0.365714 6.436571a12.8 12.8 0 0 1-2.194286 7.826286 110.738286 110.738286 0 0 0-21.430857-0.731428c-8.484571 0.438857-8.777143 0.804571-8.996571 9.508571v16.091429c-0.219429 2.413714-0.073143 5.12-2.121143 7.094857z" fill="#A28F08" p-id="2959"></path><path d="M684.982857 480.768c-0.073143-2.048-1.243429-2.779429-3.145143-2.779429-11.776 0-23.552 0-35.328 0.146286-0.731429 0-1.536 0.877714-2.267428 1.243429-4.534857-1.974857-4.900571-5.851429-3.803429-9.947429 1.389714-5.046857 6.070857-4.022857 9.801143-4.242286 4.315429-2.194286 8.557714 0.585143 12.873143 0.219429 6.656-0.658286 13.092571-1.024 19.017143-4.534857 0.365714 1.462857 0 3.145143 1.755428 4.169143 7.314286 4.169143 7.68 10.24 1.097143 15.725714z" fill="#C1A900" p-id="2960"></path><path d="M642.852571 662.601143c0.219429 1.901714 1.389714 2.779429 3.218286 2.779428 13.238857 0 26.477714 0 39.716572-0.146285 0.731429 0 1.462857-0.877714 2.194285-1.389715 2.413714 3.949714 0.731429 9.216 4.242286 12.726858a6.436571 6.436571 0 0 1-5.12 2.048 672.841143 672.841143 0 0 1-42.130286-0.146286c-1.901714-0.146286-3.803429-0.365714-5.046857-2.194286 1.170286-4.461714-2.413714-10.020571 2.925714-13.677714z" fill="#C1AB01" p-id="2961"></path><path d="M382.683429 475.574857c-1.901714 5.558857-0.877714 17.042286-3.510858 22.454857-5.12-3.876571-11.117714-3.876571-17.261714-4.022857-5.558857-0.146286-11.337143 1.609143-16.530286-1.682286-4.096-2.925714-1.097143-13.165714-3.218285-16.603428h40.521143v-0.146286z" fill="#A38F07" p-id="2962"></path><path d="M344.868571 529.993143l0.731429-37.741714c9.508571-0.146286 19.017143 0 28.525714-0.365715 4.900571-0.292571 3.510857 4.022857 5.12 6.144l-0.073143 9.508572a34.596571 34.596571 0 0 0-0.292571 13.019428c0.292571 2.267429 0.731429 4.534857-0.877714 6.582857l-33.133715 2.925715z" fill="#B7B1AB" p-id="2963"></path><path d="M382.171429 480.914286c-0.219429-2.413714-1.901714-2.925714-4.022858-2.925715h-31.597714c-2.194286 0-3.657143 0.512-4.022857 2.925715-4.534857-2.633143-6.802286-6.436571-5.12-11.629715 1.462857-4.608 5.632-4.022857 9.289143-4.096l-2.925714 2.486858c13.897143 1.243429 27.574857-1.024 41.033142 1.755428 2.267429 4.534857 0.877714 8.338286-2.633142 11.483429z" fill="#BCA600" p-id="2964"></path><path d="M663.844571 582.363429c5.339429 0.731429 7.68-1.097143 7.168-6.875429-0.512-5.851429-0.219429-11.702857-0.073142-17.554286 0.073143-5.485714-2.194286-8.411429-7.826286-8.045714-2.925714 0.146286-5.705143-0.219429-7.68-2.633143l19.894857 2.048a2.340571 2.340571 0 0 1 2.486857 0.365714c7.606857 6.290286 3.584 15.36 5.705143 22.893715-1.462857 5.851429-1.170286 11.702857-0.877714 17.627428-6.802286-1.024-12.434286-5.412571-18.797715-7.826285z" fill="#BDB7B0" p-id="2965"></path><path d="M661.211429 492.251429c5.412571 0 10.678857 0 16.091428-0.146286 2.413714 0 4.096 0.731429 5.193143 2.925714l-0.658286 33.645714a63.049143 63.049143 0 0 1-22.235428-1.170285c9.142857-2.413714 10.459429-9.216 9.508571-17.115429a52.516571 52.516571 0 0 1 0-6.290286c0.292571-4.534857-0.219429-8.484571-5.851428-9.216-1.316571-0.365714-2.194286-1.243429-2.048-2.633142z" fill="#C3C3C0" p-id="2966"></path><path d="M635.538286 694.125714c-3.145143-5.924571-2.56-7.460571 2.925714-9.728a29.184 29.184 0 0 1 20.333714-0.731428c5.193143 1.609143 10.752 1.316571 15.798857-0.731429 7.168-2.706286 17.334857 0 21.138286 5.632 1.024 1.462857 0.877714 3.145143 0.512 4.754286l-60.708571 0.731428z" fill="#1C5DA3" p-id="2967"></path><path d="M682.130286 460.873143c-9.508571 10.093714-20.772571 6.656-31.890286 4.388571a11.190857 11.190857 0 0 0-4.754286-8.265143c9.801143-6.217143 20.626286-5.705143 31.451429-4.388571 2.633143 0.219429 5.12 1.828571 6.802286 4.388571l-1.609143 3.876572z" fill="#685203" p-id="2968"></path><path d="M696.246857 696.612571c0.512 4.754286 0.365714 8.192-6.217143 5.266286a26.038857 26.038857 0 0 0-18.505143 0c-3.657143 1.243429-7.314286 2.048-10.971428 0.512a27.940571 27.940571 0 0 0-21.138286-0.365714c-2.779429 1.024-5.046857 1.609143-5.778286-2.267429 0.146286-1.462857-0.365714-3.145143 1.243429-4.315428a36.937143 36.937143 0 0 1 24.722286-1.243429c4.900571 1.682286 9.801143 0.731429 14.482285-0.585143a28.964571 28.964571 0 0 1 22.162286 2.925715z" fill="#27629F" p-id="2969"></path><path d="M391.460571 677.814857c3.291429 7.460571 2.779429 16.237714 2.194286 25.307429-6.582857-2.194286-19.163429-3.730286-25.819428-0.950857a16.018286 16.018286 0 0 1-11.629715-0.146286 37.229714 37.229714 0 0 0-22.528 0c-7.168 1.024-1.974857-22.674286-2.340571-25.453714l60.123428 1.243428z" fill="#2C6397" p-id="2970"></path><path d="M659.456 454.070857c-4.900571 0-8.777143 4.388571-13.970286 2.925714a4.388571 4.388571 0 0 1-2.633143-2.925714c-0.292571-5.851429 2.925714-10.24 8.777143-9.508571 9.728 1.316571 19.309714-0.438857 28.818286 1.097143 3.072 0.365714 6.363429 0.950857 7.606857 4.242285 1.462857 3.949714-2.267429 5.12-4.315428 7.168v-0.073143l-24.283429-2.925714z" fill="#7D2E0E" p-id="2971"></path><path d="M683.885714 457.142857c5.046857-7.314286 4.022857-9.728-5.046857-9.874286-4.022857 0-8.704-2.998857-12.361143 1.389715-3.657143-3.291429-8.192-1.097143-12.214857-2.194286-5.485714-1.316571-10.166857 2.048-11.410286 7.753143-2.413714-6.070857-0.512-9.508571 5.046858-11.483429 5.266286-1.974857 11.776-0.877714 15.872-6.290285 0.877714-1.097143 2.633143-1.024 3.730285 0.146285 3.949714 4.534857 9.362286 5.632 14.848 6.144 3.657143 0.365714 6.582857 1.462857 6.948572 5.558857 0.219429 4.022857 0.219429 8.192-5.412572 8.777143z" fill="#976C02" p-id="2972"></path><path d="M634.660571 696.466286l-1.024 3.291428c-0.512-7.094857-1.024-13.970286 0.146286-21.065143 0.365714 0.146286 0.877714 0.658286 1.243429 0.512 13.750857-3.876571 27.721143 3.657143 41.545143-0.585142a22.528 22.528 0 0 1 19.382857 3.730285 9.435429 9.435429 0 0 1-0.365715 6.217143c-7.533714-2.633143-14.482286-7.972571-23.405714-2.56-4.169143 2.56-10.313143 1.901714-14.994286-0.585143-7.68-4.169143-14.628571-0.146286-21.504 1.828572-2.925714 0.950857-2.267429 4.096-0.146285 6.363428 1.097143 1.316571-0.365714 1.974857-0.877715 2.925715z" fill="#AEB1B6" p-id="2973"></path><path d="M394.166857 696.246857a22.674286 22.674286 0 0 1-8.192-0.731428c-5.924571-1.316571-11.995429-1.901714-17.627428 0.804571a11.556571 11.556571 0 0 1-8.192 0.877714 35.84 35.84 0 0 0-23.844572-0.585143c-1.389714 0.512-3.218286-0.146286-4.754286-0.292571v-2.925714c9.069714-3.949714 18.139429-5.851429 27.428572-0.438857a7.241143 7.241143 0 0 0 6.802286 0c8.484571-5.12 16.822857-3.657143 25.307428-0.292572 1.462857 0.731429 2.194286-0.219429 3.072-0.950857v4.534857z" fill="#A3B1C1" p-id="2974"></path><path d="M527.872 354.084571c-1.024 0-3.803429 2.048-4.754286 2.048-2.267429-0.146286-2.779429-1.901714-5.12-2.048-0.585143-0.146286-3.730286 0.292571-4.242285 0-1.462857-0.512-9.289143 0-10.605715-1.097142-0.365714-0.512 0.950857-7.241143 0.731429-7.826286 0.585143-2.633143 5.193143-4.827429 3.437714-6.948572 2.048-2.194286 0.512-4.242286-0.365714-6.436571-1.901714-4.242286-1.097143-7.753143 3.145143-10.166857 2.633143-1.462857 5.046857-2.267429 7.168 1.097143 2.048 3.437714 6.802286 6.070857 1.170285 10.386285-2.194286 1.462857-0.512 3.218286 0.512 4.900572-0.146286 1.974857-1.901714 4.169143 0.219429 5.778286 1.462857 1.097143 2.56-0.219429 3.803429-1.170286 1.755429 4.169143-0.292571 8.630857 4.900571 11.483428z" fill="#B79301" p-id="2975"></path><path d="M696.100571 683.154286c-2.779429-0.438857-5.558857-0.146286-8.192-1.682286-4.169143-2.56-8.411429-2.121143-12.873142 0a20.992 20.992 0 0 1-17.115429 0.512c-6.582857-2.486857-12.726857-3.145143-18.870857 0.731429-3.876571 2.486857-5.412571 0.950857-5.412572-3.657143 1.462857-2.340571 3.876571-2.048 6.070858-2.486857l52.224 0.146285c3.949714 0.292571 5.851429 2.121143 4.169142 6.363429z" fill="#1F5E9B" p-id="2976"></path><path d="M331.410286 682.130286c9.069714-1.901714 17.993143-4.022857 27.501714-0.146286 3.730286 1.462857 8.630857 0.658286 13.092571-0.877714 3.364571-1.243429 7.314286-2.413714 10.971429-0.877715 2.486857 1.024 6.729143 2.048 5.778286 4.900572-1.316571 3.803429-4.169143 0.146286-6.217143-0.585143-2.486857-0.877714-5.266286-1.536-7.533714-0.438857a28.672 28.672 0 0 1-24.064 0.146286 11.629714 11.629714 0 0 0-11.337143 1.243428c-2.194286 1.755429-5.12 2.048-8.045715 1.536l-0.146285-4.900571z" fill="#ABB4BD" p-id="2977"></path><path d="M634.660571 697.563429l1.097143-3.584a23.405714 23.405714 0 0 1 20.333715-2.194286c4.973714 1.609143 10.24 3.364571 15.579428 0.585143 8.338286-4.388571 16.530286-0.292571 24.576 1.462857v3.876571a285.403429 285.403429 0 0 0-61.586286-0.146285z" fill="#A8B7C5" p-id="2978"></path><path d="M386.340571 538.331429c-7.168-4.022857-1.901714-6.217143 1.097143-8.704 0.658286-0.512 1.170286-1.462857 1.682286-2.267429l4.388571 0.146286c-1.462857 5.266286 0.731429 10.459429 0.146286 15.725714l-7.314286-4.900571z" fill="#B7600D" p-id="2979"></path><path d="M377.929143 548.571429c0.950857 2.925714-0.292571 6.217143 1.316571 9.142857v0.146285c-0.365714 5.046857-1.755429 10.020571-0.438857 15.067429 0.731429 3.072-1.462857 3.510857-3.584 3.803429-3.364571 0.146286-4.388571-2.413714-4.608-5.046858a84.918857 84.918857 0 0 1 0.073143-18.724571c0.512-3.949714 2.413714-6.729143 7.241143-4.388571z" fill="#CFCAC7" p-id="2980"></path><path d="M383.853714 454.582857c0 4.534857 0 9.142857 0.658286 13.677714 3.510857 32.329143-2.925714 41.910857-25.161143 36.864-6.729143-7.533714-10.971429-18.651429-15.433143-28.818285 10.605714-19.163429 28.013714-8.557714 39.936-21.723429z m33.206857 15.213714c-2.633143 12.580571-3.218286 31.305143-15.140571 27.794286-9.362286-2.56-12.288-15.725714-9.728-30.866286 1.974857-10.605714-3.510857-11.629714-8.338286-13.165714-0.292571-8.557714-0.658286-18.139429 6.436572-20.187428 4.827429-1.024 7.387429 6.070857 8.045714 12.653714 1.974857 17.188571 15.506286 10.605714 18.724571 23.771428z" fill="#935308" p-id="2981"></path><path d="M339.090286 452.534857c-1.243429-4.388571 0.292571-7.314286 4.681143-8.630857 4.242286 0.512 5.266286 3.730286 6.070857 7.168l-10.752 1.462857z" fill="#9E2C11" p-id="2982"></path><path d="M383.561143 454.070857c-0.731429-0.512-1.462857-1.097143-2.267429-1.243428-2.413714-0.365714-5.12 0.146286-6.070857-3.291429-0.877714-3.510857 1.755429-4.754286 3.949714-6.436571 4.534857 2.56 8.557714 5.12 4.388572 10.971428z" fill="#9D400E" p-id="2983"></path><path d="M576.365714 377.636571c-0.438857 15.652571 0.512 32.329143-9.801143 33.353143-7.460571 0-14.043429-6.217143-15.872-23.990857-2.340571-21.942857-2.852571-42.788571 10.752-49.005714 5.12 13.531429 9.801143 27.062857 14.994286 39.643428z m-57.490285-37.595428c22.893714 3.145143 17.773714 31.305143 10.752 60.562286-10.752 17.700571-19.163429 12.434286-26.185143-11.483429-1.462857-26.112 7.899429-35.474286 15.36-49.005714z" fill="#7B7E43" p-id="2984"></path><path d="M384.804571 467.163429l-8.411428-0.365715c0-3.072 1.097143-5.266286 2.998857-6.948571-1.755429 5.046857 3.437714 5.046857 5.412571 7.314286z" fill="#BCA600" p-id="2985"></path><path d="M558.372571 627.492571c-3.291429-3.949714-6.217143-7.606857-11.849142-9.216-6.290286-1.755429-5.558857-9.069714-7.68-14.116571-0.658286-1.462857 1.901714-2.998857 3.364571-1.755429 4.827429 4.022857 13.750857 3.803429 13.604571 13.165715 0 2.852571 2.925714 6.217143 5.412572 5.193143 2.779429-0.950857 2.048-5.12 0.512-7.314286-2.998857-4.242286-4.534857-7.899429-1.097143-12.653714 1.462857-2.194286-0.731429-4.534857-2.413714-6.070858-1.901714-1.755429-3.437714 0-4.827429 1.243429-2.633143 2.267429-5.997714 3.072-8.118857 0.731429-2.194286-2.340571-0.146286-5.997714 1.316571-8.411429 1.828571-2.998857 4.973714 0 7.094858-0.219429 7.387429-0.512 14.848 0.731429 22.162285-0.146285 1.389714-0.146286 2.633143-1.389714 3.876572-1.243429 6.582857 0.146286 12.434286 4.388571 19.894857 0.658286 3.291429-1.682286 6.582857 3.876571 3.657143 8.411428-2.779429 4.242286-2.998857 8.045714 0.512 11.922286 1.243429 1.316571 1.389714 3.145143 0.877714 4.681143-3.364571 10.459429-0.146286 21.065143-0.731429 31.378286a53.686857 53.686857 0 0 1-8.192 22.528c-2.267429 3.657143-8.045714 5.12-9.581714 10.313143A1.974857 1.974857 0 0 1 585.142857 677.595429c-8.557714 0.877714-16.384 6.582857-25.307428 3.803428-0.219429 0-0.365714-0.438857-0.585143-0.438857-11.849143 1.682286-17.408-8.411429-25.6-13.458286-1.097143-0.731429-2.998857-1.974857-2.925715-2.925714 1.170286-8.630857-4.461714-15.945143-4.388571-24.868571 0.146286-7.460571 2.048-15.140571 0.146286-22.308572-0.877714-3.437714-1.170286-5.046857 1.901714-5.046857 3.510857 0 4.534857-6.802286 7.826286-3.510857 2.925714 2.925714-1.828571 5.558857-2.706286 8.411428-0.877714 2.925714-1.389714 6.070857 0.731429 8.704 1.536 1.901714 4.461714 2.267429 5.851428 1.243429l18.285714 0.292571" fill="#C29C04" p-id="2986"></path><path d="M503.588571 599.771429a26.770286 26.770286 0 0 1-13.604571-25.819429c0.365714-10.605714 4.242286-19.382857 14.701714-24.283429 9.947429-4.827429 22.893714 0.073143 28.379429 10.678858 7.533714 14.774857 2.340571 32.621714-10.971429 39.424-6.217143 2.413714-12.361143 3.145143-18.505143 0z" fill="#0358B7" p-id="2987"></path><path d="M477.842286 566.491429c-18.285714 0-48.274286 0.950857-48.054857-4.388572 0.365714-4.022857 2.486857-72.630857 9.508571-82.651428 3.803429-5.851429 43.885714-4.827429 48.932571 1.316571 2.925714 3.657143 16.457143 50.102857 0.877715 66.340571l-11.264 19.382858z" fill="#6C5F03" p-id="2988"></path><path d="M493.129143 684.105143c-2.267429 3.657143-6.436571 3.584-9.728 5.412571-3.510857-0.585143-2.633143-3.364571-2.633143-5.485714V597.504c0-2.267429-0.658286-4.900571 2.925714-5.412571 8.923429 11.556571 7.021714 25.088 7.021715 38.253714v47.762286c0.146286 2.340571-0.219429 4.754286 2.413714 5.997714z" fill="#C2AB00" p-id="2989"></path><path d="M506.148571 669.622857a16.676571 16.676571 0 0 1-2.56-9.142857c0-13.458286-0.292571-27.062857-0.292571-40.594286 0-2.633143-1.462857-6.363429 3.803429-6.363428 4.534857 0 6.436571 2.194286 6.290285 6.363428-0.292571 10.459429 0.731429 20.918857-0.658285 31.451429-0.219429 2.340571 0.292571 4.608 0.365714 6.948571 1.462857 5.339429-1.316571 8.996571-4.900572 12.214857a3.657143 3.657143 0 0 1-1.974857-0.877714z" fill="#BAA401" p-id="2990"></path><path d="M579.364571 507.830857a4.681143 4.681143 0 0 1-1.243428-2.998857c-0.292571-6.070857-1.755429-12.068571 0.512-18.139429 2.633143-2.048 5.851429-3.291429 8.045714-5.924571 1.974857 3.145143 4.022857 4.534857 7.826286 1.901714 1.974857-1.462857 5.632-3.291429 7.68-0.877714 2.194286 2.633143 1.609143 6.436571-0.877714 8.923429-9.216 9.069714-7.314286 18.797714-3.291429 29.476571 1.901714 5.046857-0.512 9.801143-5.705143 12.726857-8.192 4.534857-8.192 4.534857-2.925714 12.068572 2.194286 3.291429 0.804571 5.705143-1.462857 8.045714-3.145143-3.510857-4.754286-7.753143-7.021715-11.849143-2.925714-4.973714 2.121143-7.168 4.754286-10.020571-5.412571-1.682286-5.412571-1.682286-5.851428-5.705143l-0.438858-17.554286z" fill="#B57D95" p-id="2991"></path><path d="M579.510857 525.897143c1.755429 4.973714 7.387429 1.316571 10.459429 4.461714-2.267429 1.536-4.388571 2.56-6.217143 4.315429-2.486857 2.633143-3.145143 4.388571-0.365714 7.533714 2.633143 2.925714 4.534857 6.436571 4.534857 10.752l-0.512 9.435429c-4.608 1.243429-7.387429-3.145143-11.337143-4.022858-2.121143-5.339429 3.437714-4.534857 5.558857-7.094857-2.413714-2.998857-10.313143 2.779429-9.289143-5.558857-1.462857-2.121143-1.024-4.534857-0.658286-6.582857 1.609143-9.654857 1.462857-9.874286-8.045714-10.532571l-1.243428-3.876572c-1.682286-2.779429-4.169143-5.558857-1.170286-8.777143 3.657143-4.096 8.338286-3.657143 12.946286-2.413714a13.677714 13.677714 0 0 1 5.339428 12.288z" fill="#E073A4" p-id="2992"></path><path d="M579.364571 486.546286V504.685714c-5.851429 8.338286-9.216 8.923429-18.285714 3.510857a86.308571 86.308571 0 0 0-6.802286-3.657142c-2.340571-1.097143-3.657143-2.925714-1.462857-5.412572 2.413714-0.438857 5.558857 0.512 6.802286-2.706286 1.389714-3.803429 4.534857-6.582857 5.997714-10.752 1.170286-2.998857 7.314286-2.633143 11.337143-3.145142 1.682286 0.877714 3.291429 1.755429 2.413714 4.022857z" fill="#E46EA4" p-id="2993"></path><path d="M544.182857 507.611429l-0.219428 0.073142c-4.022857 0.512-6.656-1.462857-8.411429-4.900571-0.512-0.950857-1.024-2.779429-1.755429-2.779429-5.924571-0.585143-6.802286-1.974857-5.266285-8.630857 0.950857-4.388571-0.438857-6.729143 5.12-5.339428 1.243429 0.292571 2.194286-0.512 2.998857-1.389715 1.316571-1.243429 2.413714-3.218286 4.534857-1.609142 1.462857 1.170286 1.828571 2.998857 0.731429 4.388571-2.340571 3.803429 1.316571 5.924571 2.340571 8.777143v11.410286z" fill="#AA7488" p-id="2994"></path><path d="M570.660571 539.794286c-1.901714 0.512-2.194286 1.901714-2.486857 3.657143-1.243429 10.459429-1.243429 10.459429-11.337143 7.68-2.413714-0.365714-4.681143-1.462857-5.851428-3.657143-1.243429-2.633143-2.194286-5.851429 3.072-4.754286 5.046857 2.633143 5.632-0.365714 5.046857-4.169143-0.365714-2.779429-2.048-5.851429 1.243429-7.533714a11.702857 11.702857 0 0 1 10.24-0.512c5.778286 2.633143 0.877714 6.144 0.073142 9.289143z" fill="#E073A4" p-id="2995"></path><path d="M576.438857 483.474286c-3.145143 0-5.266286 4.461714-8.923428 1.974857-0.585143-0.365714-1.462857 0.219429-1.243429 1.024 1.901714 6.144-3.510857 7.168-6.656 9.801143-1.462857-3.145143-4.827429-3.510857-7.168-5.12-1.536-1.097143-3.072-2.413714-2.413714-4.681143 0.512-2.048 2.413714-1.536 4.022857-1.901714 7.314286-1.682286 15.140571-2.779429 16.969143-12.141715 1.682286 3.949714 3.803429 7.460571 5.412571 11.117715z" fill="#A96470" p-id="2996"></path><path d="M542.72 523.117714a67.072 67.072 0 0 0-1.243429 4.754286c-0.877714 3.145143-1.755429 3.145143-4.827428 1.389714-5.778286-3.291429-5.412571-8.411429-5.485714-13.604571-0.146286-2.779429 2.486857-2.413714 4.096-2.267429 3.072 0.219429 6.070857 0.731429 8.996571 1.097143 0.877714 2.048-0.512 3.072-1.755429 3.949714-2.925714 1.755429-1.316571 3.145143 0.219429 4.681143z" fill="#A67B8D" p-id="2997"></path><path d="M554.057143 542.72c-3.876571 1.170286-3.291429 3.145143-0.877714 5.12 1.243429 1.024 3.510857 0.950857 3.657142 3.291429-3.803429 6.948571-2.779429 5.705143-8.704 1.316571-6.070857-4.534857-1.024-8.338286-1.462857-12.434286-0.146286-1.462857 1.828571-1.536 3.364572-1.536 2.998857 0 4.534857 1.243429 4.022857 4.242286z" fill="#AC6985" p-id="2998"></path><path d="M542.72 523.117714c-1.901714-0.438857-4.681143 0.950857-5.266286-1.901714-0.512-2.633143 1.755429-3.437714 3.876572-3.949714 1.462857-0.365714 2.267429-1.389714 2.925714-2.779429l1.243429-1.097143c3.510857 1.901714 6.948571-3.437714 10.678857-0.292571 0.877714 0.731429 3.072 0 2.925714 2.048-0.146286 1.462857-1.682286 2.048-2.998857 2.267428-4.388571 0.731429-8.777143 1.755429-11.849143 5.412572l-1.462857 0.292571z" fill="#DB6C9F" p-id="2999"></path><path d="M544.182857 507.611429c-3.657143-2.925714-3.876571-8.557714-8.118857-11.190858-1.170286-0.731429-1.755429-1.682286-0.877714-2.779428 1.024-1.462857 2.121143-0.658286 2.925714 0.073143 1.682286 1.901714 3.657143 2.779429 6.144 2.413714 1.024 1.462857 3.876571-0.219429 4.169143 2.413714 0 1.097143-0.292571 2.340571 0.219428 3.364572 0.731429 1.755429 3.510857 2.779429 1.755429 5.339428-1.755429 2.925714-4.022857 0.073143-6.144 0.365715z" fill="#DD6C9F" p-id="3000"></path><path d="M576.219429 558.372571c5.046857-2.413714 7.168 3.657143 11.337142 4.022858 0 2.121143-0.658286 5.12-2.998857 3.876571-3.437714-1.609143-10.386286-0.512-8.338285-7.899429z" fill="#8A5664" p-id="3001"></path><path d="M492.836571 418.669714c-0.512-0.585143-0.731429-1.755429-1.901714-1.462857-0.585143 0.219429-0.365714 1.097143-0.365714 1.828572-3.876571 7.972571-10.459429 9.362286-18.358857 4.096-2.486857-5.412571 1.609143-6.436571 5.12-7.972572 2.194286-1.097143 4.096-2.486857 4.388571-5.12-0.950857-3.291429-3.657143-2.925714-5.997714-3.072-1.609143-0.146286-3.730286 0.658286-3.730286-2.194286-0.731429-4.096-5.705143-6.070857-4.315428-11.702857a18.285714 18.285714 0 0 1 4.315428-9.289143c8.557714-5.997714 18.578286-6.363429 28.525714-7.314285 5.12 0.438857 4.534857 3.803429 3.437715 6.948571-1.170286 3.291429-1.243429 5.705143 2.194285 7.606857 5.851429 2.925714-2.194286 6.290286 0 9.435429-0.292571 3.876571-3.657143 2.340571-5.705142 3.364571-2.706286 1.462857-6.582857 1.901714-4.315429 6.582857 3.510857 2.779429 7.68 2.194286 11.849143 2.194286 2.998857 1.901714 2.194286 4.827429 2.194286 7.460572l-1.462858 1.462857-15.872-2.852572z" fill="#A91617" p-id="3002"></path><path d="M524.434286 404.699429c-6.290286-2.925714-7.533714-7.826286-2.925715-13.312a8.411429 8.411429 0 0 0 1.462858-6.582858c-0.658286-5.558857 1.974857-7.168 6.875428-6.582857 7.826286-0.950857 15.36-0.585143 21.430857 5.485715 1.024 2.340571 4.169143 0.585143 5.266286 2.925714 3.291429 13.824 3.291429 13.824-9.654857 21.138286-4.022857 2.194286-4.681143 4.461714-0.292572 6.875428l1.901715 0.731429c3.145143 1.316571 9.069714-0.365714 6.729143 6.582857-2.779429 5.924571-8.045714 4.315429-12.726858 4.022857-4.022857-0.219429-4.973714-3.510857-5.412571-6.948571-0.292571-0.731429-0.146286-2.121143-1.024-2.121143-0.731429 0-1.024 1.462857-1.682286 2.048-0.365714 3.145143-3.657143 4.388571-4.608 7.168-5.924571 0.731429-10.093714-1.755429-12.873143-6.948572-1.024-2.194286-0.877714-4.169143 1.682286-5.412571a9.801143 9.801143 0 0 1 2.706286-0.512c2.779429-0.365714 6.290286 0.146286 7.460571-2.779429 1.243429-3.364571-3.510857-3.218286-4.315428-5.778285z" fill="#AA1718" p-id="3003"></path><path d="M418.962286 403.309714c-0.512-3.364571 0.219429-7.387429 3.876571-9.801143 3.145143-4.681143 7.533714-5.632 12.726857-4.681142 2.779429 0.512 5.412571 0 8.192-0.585143 6.656-1.462857 12.8-1.170286 16.018286 6.363428 0.438857 0.512 1.462857 1.170286 1.316571 1.536-1.755429 5.12-0.950857 11.190857-5.412571 15.36-3.145143 4.022857-1.609143 5.924571 3.072 6.290286 1.609143 0.146286 3.291429-0.512 4.900571 0.146286 3.364571 2.486857 3.510857 5.12 0.512 8.045714-5.558857 6.070857-6.948571 5.924571-17.115428-1.243429-2.048 2.194286-0.146286 6.948571-4.315429 7.826286-2.779429 0.585143-4.900571-0.512-6.948571-2.413714l-0.877714-2.925714c-9.654857-1.243429-11.702857-5.412571-14.628572-13.677715l-1.316571-10.24z" fill="#AA1618" p-id="3004"></path><path d="M578.267429 427.154286c-7.241143 4.534857-10.752 4.096-15.798858-1.316572-1.243429-7.68-1.097143-7.899429 5.851429-5.997714 2.194286 0.585143 3.218286-1.024 4.900571-1.682286 0.512-0.365714 1.097143-0.585143 1.609143-0.877714 3.291429-1.755429 1.170286-4.022857-0.219428-4.608-6.070857-2.633143-7.168-8.484571-9.581715-13.531429-0.146286-0.585143-0.292571-1.243429-0.292571-1.974857 0.292571-1.170286 1.170286-1.609143 1.901714-2.194285 2.779429-6.875429 8.192-8.045714 14.628572-6.582858a22.528 22.528 0 0 0 8.192 0.585143c6.144-0.877714 11.702857 0.219429 15.067428 6.144 4.388571 3.657143 2.56 9.216 4.169143 13.604572 0.365714 1.316571-9.801143 8.045714-11.410286 7.826285-1.682286-0.146286-3.291429-0.658286-4.827428-0.512-2.413714 0.146286-4.900571 0.658286-5.632 3.291429-0.658286 2.486857 1.974857 3.364571 2.925714 5.12 1.170286 1.828571 5.485714 0.731429 4.388572 3.437714a7.68 7.68 0 0 1-7.094858 4.900572c-2.413714 0-5.266286 1.170286-6.436571-2.486857-0.365714-1.170286-1.024-2.194286-1.462857-3.145143 0-0.438857-0.146286-1.024-0.438857-1.024-0.438857 0-0.219429 0.585143-0.438857 1.024z" fill="#A91617" p-id="3005"></path><path d="M555.446857 450.925714c7.826286 0.365714 9.216 4.169143-1.462857 6.436572-8.484571 0-39.570286 2.194286-39.570286 2.194285-16.530286 0-43.739429-1.828571-45.494857-2.340571-8.923429-2.486857-10.532571-5.266286 5.339429-8.411429 7.314286-0.292571 22.747429-2.413714 40.155428-2.413714l40.96 4.534857z" fill="#921B13" p-id="3006"></path><path d="M463.725714 377.270857c-0.585143-5.558857 3.584-12.580571 9.142857-14.336a49.956571 49.956571 0 0 1 26.185143-0.877714c3.510857 0.731429 5.12 2.706286 5.632 5.997714 0.658286 3.803429-0.146286 6.802286-4.022857 8.338286l-36.864 0.877714z" fill="#F9C100" p-id="3007"></path><path d="M551.497143 409.161143c-6.875429-6.290286-14.189714-7.826286-21.357714-11.264-1.170286-7.094857-6.436571-3.145143-7.021715-12.361143-0.731429-11.776-1.462857-20.699429 6.582857-23.625143 10.898286-3.949714 20.48-3.145143 28.672 13.385143a42.130286 42.130286 0 0 1 3.730286 26.550857c-1.974857 9.947429-6.802286 6.802286-10.532571 7.314286z m53.028571 23.917714a38.034286 38.034286 0 0 0-15.067428-12.873143c-3.291429-3.657143-7.094857-5.485714-10.752-4.973714-5.851429 0.731429-7.387429-8.704-5.851429-16.091429 1.316571-6.729143 0.585143-21.723429 8.265143-18.066285 6.290286 3.145143 12.580571 4.973714 18.870857 9.728 6.436571 4.973714 9.069714 14.994286 10.459429 26.770285 0.877714 8.923429-0.731429 15.798857-5.851429 15.506286z m-168.96-12.873143c-4.169143 3.657143-8.923429 3.657143-12.726857 9.728-2.194286-0.292571-4.754286 5.485714-6.070857-1.316571a38.546286 38.546286 0 0 1 0.950857-20.772572c4.608-11.776 9.947429-22.016 17.993143-22.308571 1.974857 0 4.022857-1.828571 6.144-2.633143 10.678857-4.169143 13.385143 2.413714 11.117714 25.526857-0.731429 7.094857-2.925714 6.290286-5.193143 6.582857-4.388571 0.219429-8.704-1.097143-12.214857 5.193143z" fill="#F8BE00" p-id="3008"></path><path d="M517.12 384.804571c-0.438857 2.56-0.073143 5.705143-4.388571 5.705143-3.218286 0-4.022857-1.901714-3.510858-4.534857 0.512-3.072 0.731429-6.582857 4.827429-6.582857 3.145143 0 3.145143 2.925714 3.145143 5.412571z" fill="#AFAA83" p-id="3009"></path><path d="M522.24 437.174857c-1.316571 6.436571-15.872 6.436571-16.896 0.146286 2.121143-9.069714 15.36-6.582857 16.822857-0.146286z" fill="#A71716" p-id="3010"></path><path d="M541.330286 442.733714c-1.901714-4.169143-2.779429-3.145143 0-5.851428 4.315429-0.804571 10.313143-1.462857 12.434285 3.364571l-1.243428 2.194286c-3.657143 2.048-7.387429 2.56-11.190857 0.292571z" fill="#208856" p-id="3011"></path><path d="M491.812571 420.937143c-1.974857-1.462857-4.827429-2.706286-3.072-5.851429 0.512-0.950857 2.340571-1.609143 3.437715-1.462857 3.657143 1.024 3.657143 3.803429 2.852571 6.582857l-3.218286 0.731429z" fill="#B87875" p-id="3012"></path><path d="M534.966857 420.059429c-0.804571-2.486857-1.682286-5.12 1.682286-7.021715 0.658286-0.292571 2.267429 0 2.925714 0.292572 2.925714 2.340571 2.340571 4.754286-0.219428 6.875428l-4.388572-0.146285z" fill="#B6827B" p-id="3013"></path><path d="M514.706286 379.757714c-2.486857-0.146286-3.437714-1.828571-3.437715-4.022857 0-0.877714 0.146286-1.609143 0.731429-2.194286a4.461714 4.461714 0 0 1 2.340571-1.024c2.121143-0.219429 4.242286 0.365714 4.242286 3.072a4.754286 4.754286 0 0 1-3.876571 4.169143z" fill="#AFAA83" p-id="3014"></path><path d="M578.998857 429.348571c-2.194286-2.56-3.437714-5.266286 0.585143-7.241142 0.804571-0.365714 3.072 0.219429 3.876571 0.950857 2.56 3.218286-1.609143 4.315429-2.852571 6.290285h-1.609143z" fill="#A26E6E" p-id="3015"></path><path d="M661.211429 492.251429c9.801143 0.219429 11.117714 6.290286 9.801142 14.189714-0.365714 3.072 0 6.070857 0 9.069714 0 10.752-0.731429 11.483429-11.410285 11.849143l-9.581715-0.512v-24.576c-0.146286-10.971429-0.146286-10.971429 11.190858-10.020571z" fill="#DADADA" p-id="3016"></path><path d="M677.814857 549.668571l-2.486857-0.365714c-0.512-1.682286-1.243429-3.145143-2.998857-3.437714-7.094857-1.024-3.657143-5.558857-2.779429-8.777143 1.097143-4.827429 4.388571-3.584 7.533715-2.267429 2.633143 0.950857 4.388571 2.121143 2.925714 5.632-1.170286 2.779429-1.462857 6.070857-2.194286 9.216z" fill="#C19305" p-id="3017"></path><path d="M695.369143 546.742857c-0.146286 1.901714-0.146286 3.803429-0.512 5.558857a4.534857 4.534857 0 0 1-2.048 2.486857c-0.512 0.292571-2.413714-0.512-2.194286-0.731428 0-4.681143-7.094857-4.754286-6.217143-8.704 0.731429-3.291429 5.046857-5.12 8.557715-4.754286 2.779429 0.365714 3.510857 3.291429 2.413714 6.144z" fill="#C08E05" p-id="3018"></path><path d="M634.002286 543.963429c-4.900571-1.901714-7.314286-5.778286-9.142857-10.020572-0.438857-0.877714 0.073143-1.901714 1.097142-2.194286 1.609143-0.512 3.437714-0.365714 4.388572 1.170286 2.048 2.998857 3.949714 5.412571 6.948571 0.877714 0.512-0.731429 1.901714-0.658286 2.267429 0.512 0.658286 2.340571-0.731429 4.534857-1.609143 6.582858-0.658286 1.609143-1.901714 3.072-3.949714 3.072z" fill="#BE8206" p-id="3019"></path><path d="M666.038857 532.114286c-1.462857 2.925714-3.803429 4.388571-3.584 7.314285 0.146286 1.462857-0.073143 3.145143-1.974857 2.925715-1.462857-0.146286-1.901714-1.609143-2.267429-3.145143-1.243429-6.070857 0.585143-7.972571 7.826286-7.094857z" fill="#C08D06" p-id="3020"></path><path d="M647.021714 531.748571c4.754286 3.510857 5.851429 6.582857 2.486857 9.728-0.219429 0.219429-2.486857 0.365714-2.925714 0.146286-3.730286-3.072-2.925714-5.924571 0.438857-9.874286z" fill="#C08906" p-id="3021"></path><path d="M670.939429 651.117714c-5.412571 0.146286-10.825143 0.438857-16.091429 0.512-3.072 0.146286-4.973714-0.731429-4.973714-4.242285 0.146286-15.506286 0-31.012571 0-46.518858 0-1.828571 0.877714-2.925714 2.56-3.730285a73.069714 73.069714 0 0 1 17.334857 7.387428l1.170286 46.592z" fill="#DADADA" p-id="3022"></path><path d="M682.276571 640.950857c0 11.190857 0 11.190857-11.337142 10.24-0.512-15.506286 1.389714-31.158857-1.170286-46.665143 4.315429 1.024 8.704 1.755429 12.068571 4.827429l0.438857 31.597714z" fill="#C2C0BD" p-id="3023"></path><path d="M367.908571 651.117714c-20.992 0.877714-20.992 0.877714-20.992-19.748571 0-7.460571-0.146286-14.848-0.219428-22.308572 3.510857-3.730286 9.069714-2.998857 13.092571-5.632 9.289143-1.462857 10.386286-0.731429 10.532572 8.338286 0.292571 10.532571 0.146286 21.138286 0 31.597714-0.146286 2.706286-0.146286 5.632-2.413715 7.753143z" fill="#D9D9D9" p-id="3024"></path><path d="M356.644571 586.166857c-9.947429 2.633143-10.24 2.413714-10.093714-8.338286v-18.139428c0-5.851429 2.194286-9.947429 8.704-10.166857 14.848-1.755429 15.067429-1.609143 14.848 13.165714-0.146286 5.997714 1.755429 12.288-2.048 17.846857l-11.410286 5.632z" fill="#D7D5D5" p-id="3025"></path><path d="M367.908571 651.117714c0-13.165714-0.365714-26.404571 0.292572-39.643428 0.365714-6.948571-2.194286-9.216-8.557714-8.192 4.534857-1.974857 8.923429-4.754286 13.970285-5.632 2.194286 1.901714 2.194286 4.534857 2.194286 7.168v39.131428c0 2.633143 0 5.12-2.048 7.168h-5.851429z" fill="#ACACAC" p-id="3026"></path><path d="M483.766857 443.245714c-3.657143-0.146286-6.290286 1.097143-10.532571-2.706285 2.998857-5.12 8.411429-5.12 12.068571-3.803429 1.462857 1.243429-0.731429 5.193143-1.462857 6.436571z" fill="#1A885C" p-id="3027"></path><path d="M354.011429 528.749714c-4.169143 0.146286-5.851429-1.755429-5.705143-5.851428 0.146286-8.265143 0.146286-16.457143 0-24.649143-0.146286-3.657143 1.389714-4.754286 4.900571-4.900572 14.848-0.877714 14.848-0.877714 14.848 13.897143 0 2.486857-0.219429 5.12 0 7.68 0.877714 5.997714-1.097143 10.24-7.021714 12.434286-2.194286 1.609143-4.681143 1.389714-7.094857 1.389714z" fill="#D9D9D9" p-id="3028"></path><path d="M344.283429 535.186286c1.974857-0.146286 3.730286 0.585143 4.754285 2.194285 1.243429 2.048 0.292571 3.584-1.243428 4.973715-0.731429 0.658286-1.462857 1.097143-2.048 1.901714-1.243429 1.755429 0.950857 6.656-3.510857 5.12-4.022857-1.389714-4.608-6.363429-4.754286-10.24 0-3.364571 4.242286-3.072 6.802286-3.949714z" fill="#C08D06" p-id="3029"></path><path d="M378.806857 529.846857c1.755429 4.827429-1.316571 8.338286-3.584 11.995429-1.243429 2.048-3.218286 2.998857-5.12 0.731428-2.267429-2.633143-5.12-5.632-4.022857-9.069714 1.243429-3.510857 3.510857-0.585143 5.412571 0.658286 4.900571 2.925714 3.876571-4.315429 7.314286-4.315429z" fill="#B8700E" p-id="3030"></path><path d="M363.008 545.133714c-2.340571 0.877714-4.608 1.024-6.582857 0.146286-4.242286-1.901714-3.949714-5.924571-3.657143-9.728 0-1.389714-0.292571-3.437714 1.462857-3.510857 4.022857-0.146286 2.779429 4.169143 4.534857 5.997714 1.609143 2.194286 2.779429 4.681143 4.242286 7.094857z" fill="#BC7B08" p-id="3031"></path><path d="M413.184 469.577143c0.438857-3.510857 3.218286-2.779429 5.412571-2.779429 29.037714 0 58.294857 0 87.332572-0.146285 4.681143 0 5.924571 1.682286 5.924571 6.217142v59.977143c0 3.364571-0.512 5.193143-4.534857 6.217143-5.778286 1.462857-11.190857 4.388571-16.749714 6.656-3.657143 0.292571-5.632-0.731429-5.485714-4.973714 0.219429-9.069714-0.146286-18.139429 2.340571-27.062857 1.316571-4.681143 2.633143-10.386286-3.657143-14.262857-2.998857-1.901714 3.072-5.266286 1.316572-8.557715-1.901714-2.779429-4.973714-2.194286-7.68-2.56-3.437714-0.512-6.217143-0.877714-5.924572-5.778285 0.365714-5.851429-4.681143-6.290286-8.777143-6.436572-4.461714-0.073143-7.241143 1.682286-6.582857 6.729143a4.608 4.608 0 0 1-1.755428 4.388571c-4.096 2.194286-8.996571-0.877714-12.873143 2.194286-0.146286 2.340571-0.512 4.754286 0.658285 7.021714 1.243429 2.486857-0.146286 3.218286-2.194285 4.608-4.242286 3.072-5.851429 8.192-2.486857 12.068572 4.388571 5.193143 3.876571 10.752 3.876571 16.384 0 5.412571 0 10.752-0.146286 16.091428-9.654857-1.243429-6.290286 5.997714-6.875428 10.605715-0.731429 5.558857 1.974857 6.948571 6.875428 6.582857 4.681143-0.365714 9.362286-0.146286 14.116572-0.146286 6.290286 2.925714 12.873143 0.731429 19.309714 1.389714 2.633143 0.219429 5.851429-1.024 6.290286 3.510858 0.365714 3.949714-1.243429 6.436571-4.900572 7.314285a45.494857 45.494857 0 0 1-11.702857 1.901715c-14.409143-0.146286-28.598857-0.292571-43.008 0.146285-5.997714 0.073143-8.411429-1.755429-8.118857-8.045714 0.365714-12.507429 0.073143-24.868571 0-37.302857-0.146286-20.626286 0-41.325714 0-61.952z" fill="#AB1418" p-id="3032"></path><path d="M446.171429 657.042286L445.44 578.267429c9.508571 0.950857 9.801143 1.316571 9.947429 10.386285v98.377143c0 2.267429-0.877714 3.510857-3.291429 3.657143-2.779429 0.146286-3.657143-1.389714-3.657143-3.876571l-0.073143-23.990858c-0.146286-1.974857 1.097143-4.900571-2.267428-5.778285z" fill="#9E1616" p-id="3033"></path><path d="M479.378286 690.834286l-2.779429 1.462857c-7.68 0.877714-7.68 0.877714-7.68-6.290286V586.020571c0-2.779429-0.219429-5.632 2.048-7.899428 5.412571-1.024 7.314286 1.024 7.314286 6.656-0.292571 31.597714-0.146286 63.195429-0.146286 94.793143a30.427429 30.427429 0 0 0 1.243429 11.264z" fill="#9F2014" p-id="3034"></path><path d="M441.344 687.908571c-2.998857-1.609143-4.388571-3.876571-4.388571-7.68 0.219429-31.085714 0.146286-62.171429 0.146285-93.403428l0.073143-3.584c0.146286-2.121143 1.316571-3.730286 3.584-3.510857 2.194286 0.146286 1.974857 2.194286 1.974857 3.803428 0 5.632-0.365714 11.337143 0.146286 16.822857 1.243429 15.872-0.146286 31.670857-0.146286 47.542858 0 3.218286 0 6.582857 2.779429 8.923428 0 8.777143-0.146286 17.773714 0 26.550857 0 3.145143-0.365714 5.412571-4.169143 4.534857z" fill="#C4AC00" p-id="3035"></path><path d="M456.192 561.225143c0.146286-1.609143 0.146286-3.291429 0.365714-4.900572 0.731429-3.291429-1.755429-8.338286 3.949715-8.777142 6.656-0.731429 9.069714 2.121143 9.289142 9.508571 0 1.462857 0.292571 2.779429 0.365715 4.169143a16.457143 16.457143 0 0 1-13.897143 0z" fill="#133CC3" p-id="3036"></path><path d="M458.459429 692.077714l-0.073143-106.788571c0-3.145143-0.292571-6.144 4.534857-6.070857 4.388571 0.146286 3.876571 3.145143 3.876571 5.924571 0 36.059429 0 72.192-0.146285 108.251429-1.243429 0.219429-2.633143 0.292571-3.876572 0.585143l-4.315428-1.901715z" fill="#C3AF00" p-id="3037"></path><path d="M517.558857 690.468571c2.486857 6.144 5.412571 1.097143 8.192 0.219429 3.218286 0.146286 6.582857-0.146286 9.801143 0.512 3.145143 0.585143 3.657143 2.779429 1.024 4.900571a12.434286 12.434286 0 0 1-7.094857 2.925715c-5.266286 0-11.190857-2.56-14.994286 4.022857-0.585143 0.950857-2.194286-3.657143-2.925714-5.12-0.585143-0.804571-5.851429 2.925714-13.165714 2.852571-3.145143-0.877714-6.582857-6.729143-0.658286-9.216 3.072-0.219429 15.652571 2.194286 15.286857-0.877714 1.462857-1.170286 2.998857-1.243429 4.534857-0.292571z" fill="#2A6254" p-id="3038"></path><path d="M509.001143 355.474286c-2.048-7.314286 2.925714-5.924571 5.485714-7.021715l1.462857 0.146286c2.925714 4.096 3.364571 7.168-2.194285 7.168a45.933714 45.933714 0 0 0-4.754286-0.365714z" fill="#1F62A4" p-id="3039"></path><path d="M434.834286 411.501714l1.974857-0.146285c2.633143 0.292571 6.802286-0.731429 6.948571 2.706285 0.146286 2.925714-1.024 7.387429-6.070857 7.533715-2.998857 0-5.632-0.877714-6.656-4.022858-1.243429-3.437714 2.413714-4.022857 3.803429-6.070857z" fill="#A68503" p-id="3040"></path><path d="M562.614857 644.242286c-0.146286 2.121143 0 4.242286-1.389714 6.144-2.925714 3.803429-2.633143 7.68 0 11.556571 1.243429 1.901714 1.243429 3.949714 1.243428 6.070857 0 2.194286 0.146286 4.388571-2.194285 5.412572-2.194286 0.877714-4.388571 0.512-5.705143-1.389715-2.048-2.486857-4.900571-3.510857-7.68-4.534857-2.267429-0.877714-5.266286-0.731429-5.558857-4.242285-0.219429-3.803429 0.731429-7.826286 4.169143-8.996572 6.070857-1.974857 10.093714-4.754286 11.337142-11.410286 0.219429-1.462857 2.194286-4.169143 4.534858-3.437714 2.194286 0.658286 0.877714 3.145143 1.243428 4.827429z" fill="#AC1E16" p-id="3041"></path><path d="M569.417143 639.268571c4.900571 2.194286 1.389714 8.850286 5.266286 11.264 3.803429 2.121143 8.777143 2.340571 11.702857 5.851429 3.437714 4.096 1.901714 9.728-3.145143 11.117714a28.013714 28.013714 0 0 0-8.777143 4.022857c-4.827429 3.291429-8.923429 1.462857-7.168-3.364571 3.730286-9.728 0.365714-19.017143 1.389714-28.525714-0.146286-0.073143 0.219429-0.073143 0.731429-0.292572z" fill="#AC1D16" p-id="3042"></path><path d="M570.660571 626.322286a18.432 18.432 0 0 1 8.777143-7.533715c4.242286-1.462857 7.460571-3.876571 7.314286-9.069714-0.073143-2.413714 1.828571-3.803429 3.218286-5.266286 1.389714-1.682286 2.633143-4.900571 5.12-3.291428 2.267429 1.389714-0.585143 3.657143-0.877715 5.558857-0.585143 3.876571-1.609143 7.753143 1.755429 11.044571 2.194286 2.048 1.170286 4.388571-0.219429 6.290286-1.243429 2.048-3.803429 4.534857-5.558857 3.145143-6.656-5.266286-12.8-0.365714-19.236571 0.146286l-0.512-0.365715 0.219428-0.658285z" fill="#AC1F16" p-id="3043"></path><path d="M590.262857 595.748571c-2.194286 4.681143-4.388571 9.069714-9.508571 10.678858-4.388571 1.462857-7.168 3.803429-7.314286 8.923428 0 2.56-1.755429 5.558857-4.900571 4.315429-2.486857-1.024-2.267429-4.169143-0.877715-6.144 2.925714-4.169143 2.194286-8.192 0.731429-12.653715-1.389714-4.242286 2.194286-7.533714 5.851428-5.266285 5.485714 3.437714 10.24 2.267429 15.945143 0.146285z" fill="#AD2016" p-id="3044"></path><path d="M540.525714 633.270857c5.997714 1.609143 11.922286 1.462857 17.846857-0.292571l-0.146285-0.073143c-1.462857 2.779429-3.437714 5.412571-6.217143 6.436571-5.485714 2.194286-9.435429 5.12-10.020572 11.702857-0.292571 1.974857-2.779429 4.754286-5.851428 3.657143-2.925714-1.024-2.121143-3.949714-1.462857-6.070857 0.731429-2.633143 1.974857-5.266286-0.146286-7.972571l5.924571-7.387429z" fill="#AC1F16" p-id="3045"></path><path d="M596.333714 637.805714c-3.510857 4.681143-3.510857 9.947429-1.755428 15.506286 0.438857 1.097143-0.950857 1.974857-2.194286 2.121143-2.779429 0.146286-5.193143-1.462857-5.193143-3.657143-0.146286-7.68-4.534857-11.117714-10.971428-13.165714-1.609143-0.731429-3.876571-2.194286-2.998858-4.096 0.950857-2.486857 3.145143-0.365714 4.754286-0.146286 3.803429 0.658286 7.314286-0.365714 11.117714-1.097143 3.145143-0.877714 6.582857-0.512 7.314286 4.534857z" fill="#AD2116" p-id="3046"></path><path d="M570.660571 626.322286c0 0.365714 0.146286 0.731429 0.365715 1.024-0.877714 9.069714-3.730286 10.313143-12.653715 5.558857l0.073143 0.073143v-5.632l-0.073143 0.146285c3.730286-3.803429 7.68-5.851429 12.288-1.170285z" fill="#368F52" p-id="3047"></path><path d="M452.534857 520.557714c1.536 2.779429 3.291429 5.266286 3.437714 8.777143 0.146286 4.681143-1.389714 6.948571-6.144 6.875429-7.314286-1.536-3.657143-7.241143-4.096-11.264-0.365714-4.754286 3.437714-4.608 6.802286-4.388572z" fill="#173A9F" p-id="3048"></path><path d="M476.598857 536.064l-5.266286-0.512-0.512-8.338286c-0.146286-2.998857 0.658286-5.632 4.388572-5.778285 3.291429-0.219429 5.924571 1.755429 6.070857 4.534857 0.146286 3.803429 0.877714 8.704-4.681143 10.093714z" fill="#0B34AB" p-id="3049"></path><path d="M477.842286 510.098286c-2.925714 0-3.730286-2.194286-3.730286-4.169143 0-2.121143-0.146286-5.12 2.486857-5.632 3.072-0.512 4.388571 1.974857 4.900572 4.754286 0.512 2.925714-1.389714 4.169143-3.657143 5.12z" fill="#9F8D00" p-id="3050"></path><path d="M447.122286 499.638857c3.291429 0.731429 5.12 2.194286 5.558857 4.388572 0.292571 2.048 0.731429 4.388571-3.145143 4.827428-3.218286 0.365714-3.876571-1.609143-3.876571-3.510857 0-1.901714-0.658286-4.022857 1.462857-5.705143z" fill="#A08F00" p-id="3051"></path><path d="M463.140571 503.296c2.267429 0 4.022857 0.731429 4.022858 2.633143 0 2.048-0.877714 4.681143-3.803429 4.681143-2.413714 0-3.145143-2.340571-3.510857-4.242286-0.292571-1.901714 1.097143-2.925714 3.291428-3.072z" fill="#AC9900" p-id="3052"></path><path d="M524.946286 559.689143c1.024 0.950857 2.267429 1.536 2.633143 2.413714 1.536 3.072 4.973714 7.314286 3.949714 9.069714-1.682286 2.779429-3.803429 5.12-4.388572 8.557715-0.146286 0.512-2.194286 1.243429-3.072 1.024-5.485714-1.170286-5.266286-7.021714-5.997714-10.459429-0.731429-3.291429 3.218286-7.533714 6.875429-10.605714z" fill="#918D1A" p-id="3053"></path><path d="M514.779429 577.974857c2.925714 1.901714 3.364571 5.924571 5.046857 8.704 2.340571 4.169143-2.56 8.045714-4.534857 11.922286-0.877714 1.828571-4.681143 0.512-5.12-1.462857-0.950857-3.949714-6.217143-8.192-0.292572-12.214857 1.755429-1.170286 1.755429-2.56 1.974857-4.169143 0.146286-1.243429 0.512-2.633143 2.925715-2.779429z" fill="#888313" p-id="3054"></path><path d="M510.244571 556.105143c0 8.045714-0.146286 19.236571-6.290285 18.724571-3.072-0.219429-2.633143-3.803429-3.949715-4.754285-7.533714-6.436571 6.363429-19.894857 10.24-13.970286z" fill="#647134" p-id="3055"></path><path d="M524.873143 687.177143c-2.194286 2.633143-11.629714 2.340571-17.92 1.609143-3.510857-0.512-4.534857-8.192-1.024-9.289143 8.484571-2.779429 8.484571-2.779429 18.066286-1.682286 1.243429 3.949714 2.925714 5.558857 0.877714 9.362286z" fill="#D5B37B" p-id="3056"></path><path d="M512.146286 688.201143a17.408 17.408 0 0 1 1.024-11.483429c2.486857-0.658286 2.925714 1.609143 4.169143 2.633143 2.852571 3.510857 1.316571 7.314286 0.365714 10.971429l-4.681143 0.219428-0.877714-2.340571z" fill="#822C23" p-id="3057"></path><path d="M575.195429 514.633143c2.413714-1.755429 2.56-4.900571 4.169142-7.168 4.900571-1.462857 4.900571-5.046857 3.803429-8.923429-0.731429-2.56-1.536-5.12-0.292571-7.606857 1.170286-2.194286 3.145143-3.730286 5.705142-2.925714 2.925714 0.804571 1.901714 3.072 1.389715 5.193143a55.588571 55.588571 0 0 0 0.365714 20.918857c2.194286 12.214857 0.585143 13.750857-10.971429 11.702857-1.609143-3.657143-3.510857-7.021714-4.169142-11.190857z" fill="#D6D3D4" p-id="3058"></path><path d="M563.346286 415.158857l-2.121143-0.146286c-3.657143 0.146286-6.802286-0.365714-6.144-5.12 0.365714-3.072 2.998857-4.022857 5.12-2.925714 2.779429 1.462857 7.68 2.779429 4.388571 8.045714-0.365714 0-0.804571 0-1.243428 0.146286z" fill="#AF8D03" p-id="3059"></path><path d="M509.074286 411.794286l0.146285-3.657143c2.194286 0 4.388571-3.437714 6.582858-0.219429 0.950857 1.462857 0.804571 2.998857-0.365715 4.388572-2.194286 2.925714-4.388571 0.950857-6.363428-0.512z" fill="#A91617" p-id="3060"></path></svg>