<?xml version="1.0" standalone="no"?><!DOCTYPE svg PUBLIC "-//W3C//DTD SVG 1.1//EN" "http://www.w3.org/Graphics/SVG/1.1/DTD/svg11.dtd"><svg t="1770618920049" class="icon" viewBox="0 0 1793 1024" version="1.1" xmlns="http://www.w3.org/2000/svg" p-id="8696" xmlns:xlink="http://www.w3.org/1999/xlink" width="350.1953125" height="200"><path d="M0 340.76397V5.12427S0 0 5.12427 0h1783.246039S1793.494579 0 1793.494579 5.12427v335.6397a9.394495 9.394495 0 0 1-6.83236 0H14.518766a21.351126 21.351126 0 0 1-14.518766 0z" fill="#FE9832" p-id="8697"></path><path d="M1793.494579 682.381985v341.618015H0v-341.618015a9.394495 9.394495 0 0 1 6.83236 0h1772.143453c5.12427-2.562135 14.518766-4.270225 14.518766 0z" fill="#128707" p-id="8698"></path><path d="M1793.494579 682.381985H0v-341.618015h1793.494579zM0 1023.145955h1793.494579H5.12427S0 1024.854045 0 1023.145955z" fill="#FEFEFE" p-id="8699"></path><path d="M890.768974 669.571309a195.576314 195.576314 0 0 1-85.404504-18.78899 160.560467 160.560467 0 0 1-55.512927-39.286072 170.809008 170.809008 0 0 1-24.767306-34.161802 134.085071 134.085071 0 0 1-12.810676-100.777314 147.749791 147.749791 0 0 1 29.037532-56.366973 195.576314 195.576314 0 0 1 34.161801-30.745621 180.203503 180.203503 0 0 1 78.572144-31.599666 204.970809 204.970809 0 0 1 99.069224 0 170.809008 170.809008 0 0 1 54.658882 26.475396 159.706422 159.706422 0 0 1 52.096748 52.096747 147.749791 147.749791 0 0 1 15.37281 33.307757 132.376981 132.376981 0 0 1 4.270225 68.323603 156.290242 156.290242 0 0 1-28.183486 58.929107 170.809008 170.809008 0 0 1-38.432026 36.723937 190.452043 190.452043 0 0 1-54.658883 26.475396 225.46789 225.46789 0 0 1-67.469558 9.394495z" fill="#00007F" p-id="8700"></path><path d="M768.640534 588.437031c-5.978315 0-7.686405 0-10.248541-6.83236v-5.124271-5.12427a6.83236 6.83236 0 0 0 0-8.54045 6.83236 6.83236 0 0 0-8.54045-5.978316c-5.12427 0-5.978315 0-6.83236-5.978315a21.351126 21.351126 0 0 0 0-5.978315v-9.394495a5.978315 5.978315 0 0 0 0-7.686406s-4.270225-5.978315-6.832361-5.978315-5.12427 0-5.12427-5.978315v-7.686406s0-5.978315 5.12427-7.686405 10.24854-8.54045 0-13.664721-4.270225 0 0-6.83236 0 0 0-6.83236 0-7.686405 7.686406-6.832361a7.686405 7.686405 0 0 0 7.686405-5.978315v-9.394495c0-1.70809 0 0 0 0a12.810676 12.810676 0 0 0 4.270225-5.978315c0-5.12427 5.12427-8.54045 11.956631-6.832361a8.54045 8.54045 0 0 0 8.54045-11.95663v-5.978316l4.270225-5.12427s6.83236-5.978315 12.810676 0 15.372811 0 11.95663-10.24854 0 0 0-4.270225l17.080901-16.226856a11.956631 11.956631 0 0 0 12.810676 0v-4.270225c0-4.270225 4.270225-6.83236 8.54045-7.686406h16.226856a9.394495 9.394495 0 0 0 16.226856 0 4.270225 4.270225 0 0 1 5.12427 0h11.102585s6.83236 0 8.540451 5.124271a9.394495 9.394495 0 0 0 15.37281 0 11.102585 11.102585 0 0 1 11.956631 0h7.686405s5.978315 0 5.978315 5.978315a9.394495 9.394495 0 0 0 15.372811 5.12427 6.83236 6.83236 0 0 1 8.54045 0l7.686406 4.270225s6.83236 0 5.978315 8.540451 5.978315 11.102585 10.24854 7.686405 11.102585 0 15.372811 5.12427a13.664721 13.664721 0 0 1 5.978315 5.978315 7.686405 7.686405 0 0 0 5.978316 12.810676c9.394495 0 11.956631 5.12427 15.37281 11.102586a6.83236 6.83236 0 0 1 0 8.54045 7.686405 7.686405 0 0 0 5.124271 12.810675c5.978315 0 7.686405 0 9.394495 8.540451a21.351126 21.351126 0 0 0 0 5.978315v5.12427c0 5.12427-5.12427 4.270225-5.12427 7.686406a6.83236 6.83236 0 0 0 5.12427 6.83236c4.270225 0 5.978315 0 5.12427 6.83236V520.967473s-6.83236 0-6.83236 6.83236a7.686405 7.686405 0 0 0 5.12427 8.540451v11.102585a8.54045 8.54045 0 0 1-7.686405 5.12427c-6.83236 0-9.394495 5.978315-7.686406 11.956631s0 9.394495 0 15.37281a9.394495 9.394495 0 0 1-10.24854 4.270226 8.54045 8.54045 0 0 0-8.54045 0 6.83236 6.83236 0 0 0 0 9.394495l-13.664721 11.956631c-9.394495-4.270225-14.518766 0-13.664721 9.394495l-10.24854 4.270225s-7.686405 4.270225-12.810676 0a9.394495 9.394495 0 0 0-13.66472 7.686406v4.270225h-9.394496a11.102585 11.102585 0 0 1-11.95663 0c-4.270225-5.12427-12.810676 0-16.226856 4.270225s-9.394495 0-14.518765 0h-9.394496a9.394495 9.394495 0 0 0-17.080901 0h-17.0809s-6.83236 0-7.686406-7.686405a6.83236 6.83236 0 0 0-11.95663-4.270226 14.518766 14.518766 0 0 1-15.372811 0h-6.83236a8.54045 8.54045 0 0 0-12.810676-10.24854 7.686405 7.686405 0 0 1-9.394495 0 74.301918 74.301918 0 0 1-9.394496-7.686405s-8.54045-17.080901-14.518765-17.080901z" fill="#FEFEFE" p-id="8701"></path><path d="M893.331109 469.724771a268.170142 268.170142 0 0 1 0-69.177648V384.320267v58.929107a272.440367 272.440367 0 0 1-4.270225 35.869892h4.270225a96.507089 96.507089 0 0 1 0-15.372811 159.706422 159.706422 0 0 1 14.518766-44.410342c0-11.956631 10.24854-23.059216 12.810675-35.869891-5.978315 17.080901-7.686405 35.015847-12.810675 52.096747a94.798999 94.798999 0 0 1-13.664721 33.307757v6.83236a128.960801 128.960801 0 0 0 7.686406-15.372811 140.917431 140.917431 0 0 1 23.913261-35.015846l18.788991-25.621351a32.453711 32.453711 0 0 1 9.394495-9.394496 146.041701 146.041701 0 0 1-11.102586 19.643036c0 5.978315-6.83236 12.810676-11.102585 18.788991a187.889908 187.889908 0 0 0-12.810676 22.205171 58.929108 58.929108 0 0 1-9.394495 11.102585s-6.83236 9.394495-11.102586 12.810676-4.270225 0 0 5.12427 0 0 5.978316 0L939.449541 469.724771a163.976647 163.976647 0 0 1 18.788991-15.372811l29.891576-21.351126 18.788991-14.518766a51.242702 51.242702 0 0 1-11.102585 11.956631l-47.826522 46.118432-22.205171 14.518766s-6.83236 0-5.124271 5.978315 5.978315 0 7.686406 0a400.547123 400.547123 0 0 1 74.301918-36.723937c9.394495 0 17.934946-7.686405 27.329441-10.24854l-33.307756 18.788991a349.30442 349.30442 0 0 1-39.286072 21.351126c-9.394495 5.12427-19.643036 6.83236-29.037531 11.95663s-5.12427 0 0 0h5.12427l21.351126-6.83236a105.901585 105.901585 0 0 1 32.453711-7.686406c21.351126-4.270225 41.848207-7.686405 63.199333-10.24854l-27.329441 7.686405c-17.934946 5.12427-35.869892 11.102585-54.658882 15.372811s-21.351126 0-32.453712 4.270225-5.12427 0-5.12427 0h5.12427a122.12844 122.12844 0 0 0 24.767306 0 111.8799 111.8799 0 0 1 23.913261 0l71.739783 4.270225h-70.885738a493.638032 493.638032 0 0 1-49.534612 0h-5.12427 5.12427a413.357798 413.357798 0 0 1 89.674729 20.497081 119.566305 119.566305 0 0 1 24.767306 7.686406l-76.864053-13.664721a298.915763 298.915763 0 0 1-39.286072-11.956631 99.923269 99.923269 0 0 0 22.205171 8.540451 206.678899 206.678899 0 0 1 30.745621 15.372811l49.534613 28.183486-30.745622-11.956631-46.118432-20.497081c-8.54045-4.270225-16.226856-11.102585-24.767306-15.37281s-5.978315-5.978315-8.54045 0 0 4.270225 5.12427 5.978315a204.970809 204.970809 0 0 1 40.140117 31.599666 500.470392 500.470392 0 0 0 37.577981 35.869892l-25.621351-19.643036L939.449541 555.129274a127.252711 127.252711 0 0 1-10.24854-11.95663l-11.956631-12.810676h-5.12427c-5.12427 0 0 0 0 0a111.8799 111.8799 0 0 0 27.329441 24.767306c7.686405 12.810676 13.664721 25.621351 22.205171 37.577982a68.323603 68.323603 0 0 0 11.102586 18.788991 12.810676 12.810676 0 0 1 0 5.978315 55.512927 55.512927 0 0 1-14.518766-17.080901l-32.453711-40.994161v-5.978316c0-7.686405-7.686405-13.664721-10.248541-21.351126s5.978315 17.080901 11.956631 23.913261 0 9.394495 0 14.518766 9.394495 32.453711 11.95663 49.534612 0 7.686405 0 11.956631a12.810676 12.810676 0 0 1-5.12427-8.540451c-6.83236-18.788991-13.664721-37.577982-21.351126-55.512927a205.824854 205.824854 0 0 1-5.978315-29.891576 11.102585 11.102585 0 0 1 0-5.124271h-4.270225c-4.270225 0 0 0 0 0a85.404504 85.404504 0 0 0 4.270225 25.621352 18.788991 18.788991 0 0 1 0 13.66472 141.771476 141.771476 0 0 0 0 27.329441v32.453712-15.372811-46.118432-29.891576-5.978316-5.12427c0-5.12427 0 0 0 0a267.316097 267.316097 0 0 1-8.540451 37.577982c-6.83236 16.226856-12.810676 31.599666-18.78899 47.826522a25.621351 25.621351 0 0 1-25.621351 25.621351c0-11.102585 5.978315-19.643036 6.83236-29.891576s6.83236-26.475396 9.394495-40.140117 5.978315-9.394495 7.686406-14.518766a47.826522 47.826522 0 0 1 5.978315-13.66472h-5.12427c-5.12427 0-5.978315 10.24854-8.540451 16.226856a93.090909 93.090909 0 0 1-20.497081 29.891576l-8.54045 11.95663a325.391159 325.391159 0 0 0-20.497081 27.329442c10.24854-17.934946 20.497081-35.015847 29.891576-52.950793s18.788991-21.351126 26.475397-33.307756h-5.124271c-4.270225 5.12427-10.24854 9.394495-14.518765 15.37281a96.507089 96.507089 0 0 1-22.205171 19.643036l-29.891577 22.205171-17.934945 13.664721a91.382819 91.382819 0 0 1 13.66472-11.956631l29.037531-28.183486a119.566305 119.566305 0 0 1 30.745622-23.913261 33.307756 33.307756 0 0 1 8.54045-6.83236s4.270225 0 0 0h-5.978315l-22.205171 14.518765a188.743953 188.743953 0 0 1-29.891576 13.664721l-51.242703 21.351126 21.351126-12.810676 46.118432-26.475396c6.83236 0 15.372811-4.270225 22.205171-7.686405l11.956631-5.12427a210.095079 210.095079 0 0 0-24.767306 7.686405 215.219349 215.219349 0 0 1-39.286072 8.54045l-53.804837 8.540451 29.891576-8.540451 47.826522-14.518765h34.161802-27.329442a111.8799 111.8799 0 0 1-23.913261 0l-70.031693-5.12427h125.544621c4.270225 0 0 0 0 0h-21.351126a238.278565 238.278565 0 0 1-48.680567-11.956631l-42.702252-11.956631h-5.12427l71.739783 12.810676a407.379483 407.379483 0 0 1 46.118432 12.810676h5.12427c0.854045 0 0 0 0 0l-21.351126-7.686406a151.165972 151.165972 0 0 1-26.475396-12.810675L768.640534 448.373645h-4.270225l52.096747 22.205171a134.939116 134.939116 0 0 1 29.891576 13.66472l21.351126 14.518766h5.978315c5.978315 0 0 0 0 0a230.59216 230.59216 0 0 1-47.826522-38.432027c-11.102585-11.956631-23.059216-21.351126-33.307756-32.453711a170.809008 170.809008 0 0 1 16.226856 10.24854l45.264387 31.599667s6.83236 9.394495 11.102585 13.66472l9.394495 9.394496h5.124271a306.602168 306.602168 0 0 1-31.599667-42.702252c-6.83236-14.518766-17.080901-28.183486-24.767306-42.702252l30.745622 40.140117a85.404504 85.404504 0 0 1 18.78899 29.037531 148.603837 148.603837 0 0 0 8.540451 16.226856h5.12427c5.12427 0 0 0 0 0a30.745621 30.745621 0 0 0 0-9.394496 256.213511 256.213511 0 0 1-19.643036-65.761468A157.144287 157.144287 0 0 1 854.045038 384.320267a71.739783 71.739783 0 0 1 5.12427 11.95663c5.12427 11.956631 8.54045 23.913261 13.66472 35.015847a73.447873 73.447873 0 0 1 7.686406 23.059216c0 8.54045 4.270225 16.226856 5.12427 24.767306s0 0 0-4.270225 9.394495 0.854045 7.686405-5.12427z" fill="#00007F" p-id="8702"></path><path d="M895.039199 395.422852v8.540451c0 1.70809-3.41618-5.978315 0-8.540451z" fill="#8383C1" p-id="8703"></path><path d="M902.725605 441.541284c-4.270225 0 0-5.978315 0-8.54045v8.54045z" fill="#A3A3D1" p-id="8704"></path><path d="M897.601334 384.320267a6.83236 6.83236 0 0 1 0-6.83236 6.83236 6.83236 0 0 1 0 6.83236z" fill="#8282C1" p-id="8705"></path><path d="M822.445371 399.693078V392.860717c0-6.83236-1.70809 4.270225 0 6.832361z" fill="#7373B8" p-id="8706"></path><path d="M893.331109 617.474562v0z" fill="#6666B3" p-id="8707"></path><path d="M820.737281 622.598832a10.24854 10.24854 0 0 1-5.978315 5.978316s5.12427-4.270225 5.978315-5.978316z" fill="#7373B8" p-id="8708"></path><path d="M895.893244 640.533778a6.83236 6.83236 0 0 1 0 6.83236 6.83236 6.83236 0 0 1 0-6.83236z" fill="#8282C1" p-id="8709"></path><path d="M939.449541 384.320267z" fill="#6D6DB6" p-id="8710"></path><path d="M893.331109 469.724771v0z" fill="#6767B4" p-id="8711"></path><path d="M895.039199 543.172644v5.978315c0 0.854045-3.41618-5.12427 0-5.978315z" fill="#6666B4" p-id="8712"></path></svg>